<svg width="26" height="26" viewBox="0 0 26 26" fill="none" xmlns="http://www.w3.org/2000/svg">
<path d="M22 9.76827L20.7474 11.9353L5.55324 3.16701L6.80585 1L10.6138 3.19207L12.3173 2.7286L17.7411 5.86012L18.2046 7.5762L22 9.76827ZM4 22.4071V7.37578H10.3507L19.0313 12.3862V22.4071C19.0313 23.0715 18.7674 23.7087 18.2976 24.1786C17.8277 24.6484 17.1905 24.9123 16.5261 24.9123H6.50522C5.84079 24.9123 5.20358 24.6484 4.73376 24.1786C4.26394 23.7087 4 23.0715 4 22.4071ZM6.50522 22.4071H16.5261V13.8893L9.58664 9.881H6.50522V22.4071Z" fill="#FF0000" fill-opacity="0.6"/>
</svg>
