<svg width="25" height="24" viewBox="0 0 25 24" fill="none" xmlns="http://www.w3.org/2000/svg">
<path d="M12.5003 22.35C17.5159 22.35 21.5819 18.2606 21.5819 13.2161C21.5819 8.17161 17.5159 4.08223 12.5003 4.08223C7.48459 4.08223 3.41858 8.17161 3.41858 13.2161C3.41858 18.2606 7.48459 22.35 12.5003 22.35Z" stroke="black" stroke-width="2"/>
<path d="M4.6703 1.65C3.79016 1.88708 2.98759 2.35304 2.34331 3.00103C1.69902 3.64902 1.23572 4.4562 1 5.3414M20.3297 1.65C21.2098 1.88708 22.0124 2.35304 22.6567 3.00103C23.301 3.64902 23.7643 4.4562 24 5.3414M12.5 7.99675V12.8899C12.5 13.07 12.6453 13.2161 12.8243 13.2161H16.3921" stroke="black" stroke-width="2" stroke-linecap="round"/>
</svg>
